<svg width="24" height="24" viewBox="0 0 24 24" fill="none" xmlns="http://www.w3.org/2000/svg">
<path d="M22.8843 11.25C22.8864 11.2277 22.8832 11.2052 22.8749 11.1844V11.1656C22.873 11.1457 22.8666 11.1264 22.8562 11.1094L21.5437 7.8375C21.4612 7.62836 21.3181 7.44871 21.1326 7.32172C20.9471 7.19472 20.7278 7.1262 20.503 7.125H16.8843V6C16.8843 5.90054 16.8448 5.80516 16.7744 5.73484C16.7041 5.66451 16.6087 5.625 16.5093 5.625H2.25928C1.96091 5.625 1.67476 5.74353 1.46378 5.9545C1.2528 6.16548 1.13428 6.45163 1.13428 6.75V17.25C1.13428 17.5484 1.2528 17.8345 1.46378 18.0455C1.67476 18.2565 1.96091 18.375 2.25928 18.375H3.7874C3.87935 18.998 4.19223 19.5673 4.66896 19.9788C5.14569 20.3903 5.75449 20.6168 6.38428 20.6168C7.01407 20.6168 7.62287 20.3903 8.0996 19.9788C8.57633 19.5673 8.88921 18.998 8.98115 18.375H15.0374C15.1293 18.998 15.4422 19.5673 15.919 19.9788C16.3957 20.3903 17.0045 20.6168 17.6343 20.6168C18.2641 20.6168 18.8729 20.3903 19.3496 19.9788C19.8263 19.5673 20.1392 18.998 20.2312 18.375H21.7593C22.0576 18.375 22.3438 18.2565 22.5548 18.0455C22.7658 17.8345 22.8843 17.5484 22.8843 17.25V11.25ZM20.503 7.875C20.5776 7.87515 20.6504 7.89753 20.7122 7.93928C20.774 7.98103 20.8219 8.04025 20.8499 8.10938L21.9562 10.875H16.8843V7.875H20.503ZM2.25928 6.375H16.1343V13.125H1.88428V6.75C1.88428 6.65054 1.92379 6.55516 1.99411 6.48483C2.06444 6.41451 2.15982 6.375 2.25928 6.375ZM1.88428 17.25V13.875H16.1343V15.8438C15.8399 16.0504 15.5908 16.315 15.4022 16.6213C15.2136 16.9276 15.0894 17.2691 15.0374 17.625H8.98115C8.88921 17.002 8.57633 16.4327 8.0996 16.0212C7.62287 15.6097 7.01407 15.3832 6.38428 15.3832C5.75449 15.3832 5.14569 15.6097 4.66896 16.0212C4.19223 16.4327 3.87935 17.002 3.7874 17.625H2.25928C2.15982 17.625 2.06444 17.5855 1.99411 17.5152C1.92379 17.4448 1.88428 17.3495 1.88428 17.25ZM6.38428 19.875C6.01344 19.875 5.65093 19.765 5.34258 19.559C5.03424 19.353 4.79392 19.0601 4.652 18.7175C4.51009 18.3749 4.47296 17.9979 4.5453 17.6342C4.61765 17.2705 4.79623 16.9364 5.05845 16.6742C5.32068 16.412 5.65477 16.2334 6.01848 16.161C6.3822 16.0887 6.7592 16.1258 7.10181 16.2677C7.44442 16.4096 7.73726 16.65 7.94328 16.9583C8.14931 17.2666 8.25928 17.6292 8.25928 18C8.25681 18.4965 8.05848 18.972 7.70738 19.3231C7.35628 19.6742 6.8808 19.8725 6.38428 19.875ZM17.6343 19.875C17.2634 19.875 16.9009 19.765 16.5926 19.559C16.2842 19.353 16.0439 19.0601 15.902 18.7175C15.7601 18.3749 15.723 17.9979 15.7953 17.6342C15.8677 17.2705 16.0462 16.9364 16.3085 16.6742C16.5707 16.412 16.9048 16.2334 17.2685 16.161C17.6322 16.0887 18.0092 16.1258 18.3518 16.2677C18.6944 16.4096 18.9873 16.65 19.1933 16.9583C19.3993 17.2666 19.5093 17.6292 19.5093 18C19.5068 18.4965 19.3085 18.972 18.9574 19.3231C18.6063 19.6742 18.1308 19.8725 17.6343 19.875ZM22.1343 17.25C22.1343 17.3495 22.0948 17.4448 22.0244 17.5152C21.9541 17.5855 21.8587 17.625 21.7593 17.625H20.2312C20.1429 16.9996 19.8313 16.4273 19.354 16.0138C18.8767 15.6002 18.2658 15.3733 17.6343 15.375C17.38 15.3736 17.127 15.4115 16.8843 15.4875V11.625H22.1343V17.25Z" fill="black"/>
</svg>
