<svg width="22" height="22" viewBox="0 0 22 22" fill="none" xmlns="http://www.w3.org/2000/svg">
<path d="M20.4785 11.8809L21.6699 5.35742C21.6843 5.27322 21.6804 5.18691 21.6585 5.10435C21.6366 5.02179 21.5972 4.9449 21.543 4.87891C21.4894 4.81124 21.4211 4.75671 21.3432 4.71947C21.2654 4.68224 21.18 4.66328 21.0938 4.66406H5.17578L4.66797 1.88086C4.6128 1.56614 4.44838 1.28098 4.20366 1.07555C3.95894 0.870126 3.64959 0.757611 3.33008 0.757813H1.5625C1.4071 0.757813 1.25806 0.819545 1.14818 0.92943C1.0383 1.03931 0.976562 1.18835 0.976562 1.34375C0.976562 1.49915 1.0383 1.64819 1.14818 1.75807C1.25806 1.86796 1.4071 1.92969 1.5625 1.92969H3.33008C3.37409 1.931 3.41637 1.94715 3.45005 1.97552C3.48373 2.00388 3.50684 2.04279 3.51562 2.08594L6.2207 16.9492C5.88619 17.2184 5.62541 17.568 5.46273 17.9654C5.30006 18.3627 5.24081 18.7948 5.29052 19.2213C5.34023 19.6478 5.49728 20.0547 5.74699 20.404C5.9967 20.7533 6.3309 21.0335 6.71836 21.2186C7.10581 21.4036 7.53386 21.4873 7.96247 21.462C8.39109 21.4366 8.80627 21.303 9.16921 21.0736C9.53214 20.8441 9.83096 20.5264 10.0377 20.1501C10.2445 19.7738 10.3525 19.3512 10.3516 18.9219C10.3535 18.437 10.2144 17.9619 9.95117 17.5547H15.8301C15.5668 17.9619 15.4277 18.437 15.4297 18.9219C15.4297 19.4241 15.5786 19.915 15.8576 20.3325C16.1366 20.75 16.5331 21.0755 16.9971 21.2677C17.461 21.4598 17.9716 21.5101 18.4641 21.4121C18.9566 21.3142 19.409 21.0724 19.7641 20.7173C20.1192 20.3622 20.3611 19.9097 20.459 19.4172C20.557 18.9247 20.5067 18.4142 20.3145 17.9502C20.1224 17.4863 19.7969 17.0897 19.3794 16.8107C18.9618 16.5317 18.4709 16.3828 17.9688 16.3828H7.30469L6.80664 13.6484H18.3691C18.872 13.6473 19.3586 13.4697 19.744 13.1467C20.1294 12.8237 20.3894 12.3758 20.4785 11.8809ZM9.17969 18.9219C9.17969 19.1923 9.0995 19.4566 8.94927 19.6814C8.79905 19.9063 8.58552 20.0815 8.3357 20.185C8.08588 20.2885 7.81098 20.3155 7.54578 20.2628C7.28057 20.21 7.03696 20.0798 6.84575 19.8886C6.65455 19.6974 6.52434 19.4538 6.47158 19.1886C6.41883 18.9234 6.4459 18.6485 6.54938 18.3987C6.65286 18.1489 6.8281 17.9353 7.05293 17.7851C7.27776 17.6349 7.5421 17.5547 7.8125 17.5547C8.1751 17.5547 8.52285 17.6987 8.77925 17.9551C9.03565 18.2115 9.17969 18.5593 9.17969 18.9219ZM19.3359 18.9219C19.3359 19.1923 19.2558 19.4566 19.1055 19.6814C18.9553 19.9063 18.7418 20.0815 18.492 20.185C18.2421 20.2885 17.9672 20.3155 17.702 20.2628C17.4368 20.21 17.1932 20.0798 17.002 19.8886C16.8108 19.6974 16.6806 19.4538 16.6278 19.1886C16.5751 18.9234 16.6022 18.6485 16.7056 18.3987C16.8091 18.1489 16.9843 17.9353 17.2092 17.7851C17.434 17.6349 17.6983 17.5547 17.9688 17.5547C18.3314 17.5547 18.6791 17.6987 18.9355 17.9551C19.1919 18.2115 19.3359 18.5593 19.3359 18.9219ZM5.39062 5.83594H20.3906L19.3262 11.6758C19.2852 11.9 19.167 12.1027 18.9922 12.249C18.8175 12.3952 18.597 12.4757 18.3691 12.4766H6.60156L5.39062 5.83594Z" fill="black"/>
</svg>
