<svg width="11" height="18" viewBox="0 0 11 18" fill="none" xmlns="http://www.w3.org/2000/svg">
<path d="M2.00008 17.625C1.70183 17.6237 1.41589 17.506 1.2032 17.2969C1.09832 17.1924 1.01511 17.0682 0.958324 16.9314C0.901543 16.7947 0.872314 16.6481 0.872314 16.5C0.872314 16.3519 0.901543 16.2053 0.958324 16.0686C1.01511 15.9318 1.09832 15.8076 1.2032 15.7031L7.90633 9L1.2032 2.29687C0.991857 2.08553 0.873126 1.79888 0.873126 1.5C0.873126 1.35201 0.902275 1.20546 0.95891 1.06873C1.01554 0.932005 1.09855 0.807771 1.2032 0.703123C1.30785 0.598476 1.43208 0.515466 1.56881 0.458831C1.70554 0.402196 1.85208 0.373047 2.00008 0.373047C2.29896 0.373047 2.58561 0.491779 2.79695 0.703123L10.297 8.20312C10.4018 8.30764 10.485 8.43183 10.5418 8.56858C10.5986 8.70532 10.6278 8.85193 10.6278 9C10.6278 9.14806 10.5986 9.29467 10.5418 9.43142C10.485 9.56816 10.4018 9.69236 10.297 9.79687L2.79695 17.2969C2.58427 17.506 2.29832 17.6237 2.00008 17.625Z" fill="black"/>
</svg>
