<svg width="11" height="18" viewBox="0 0 11 18" fill="none" xmlns="http://www.w3.org/2000/svg">
<path d="M8.99992 0.375002C9.29817 0.376295 9.58412 0.494038 9.7968 0.703127C9.90168 0.807644 9.9849 0.931835 10.0417 1.06858C10.0985 1.20533 10.1277 1.35194 10.1277 1.5C10.1277 1.64807 10.0985 1.79468 10.0417 1.93142C9.9849 2.06817 9.90168 2.19236 9.7968 2.29688L3.09367 9L9.7968 15.7031C10.0081 15.9145 10.1269 16.2011 10.1269 16.5C10.1269 16.648 10.0977 16.7945 10.0411 16.9313C9.98446 17.068 9.90145 17.1922 9.7968 17.2969C9.69215 17.4015 9.56792 17.4845 9.43119 17.5412C9.29446 17.5978 9.14792 17.627 8.99992 17.627C8.70104 17.627 8.41439 17.5082 8.20305 17.2969L0.703049 9.79688C0.598169 9.69236 0.514952 9.56817 0.458171 9.43142C0.40139 9.29468 0.372162 9.14807 0.372162 9C0.372162 8.85194 0.40139 8.70533 0.458171 8.56858C0.514953 8.43183 0.598169 8.30764 0.70305 8.20313L8.20305 0.703127C8.41573 0.494037 8.70168 0.376295 8.99992 0.375002Z" fill="black"/>
</svg>
