<svg width="25" height="25" viewBox="0 0 25 25" fill="none" xmlns="http://www.w3.org/2000/svg">
<g clip-path="url(#clip0_97_1511)">
<path d="M15.955 5.56977C14.9081 4.52101 13.578 3.8004 12.1277 3.4962C10.6774 3.19201 9.16988 3.31746 7.78981 3.85717C6.40973 4.39688 5.21705 5.32742 4.35788 6.53478C3.49871 7.74214 3.01036 9.17389 2.95267 10.6546C2.89498 12.1354 3.27045 13.6008 4.03308 14.8713C4.7957 16.1419 5.91237 17.1624 7.24628 17.8078C8.58018 18.4533 10.0734 18.6956 11.543 18.5052C13.0125 18.3148 14.3946 17.6998 15.52 16.7357L18.9933 20.2091C19.1032 20.319 19.2523 20.3807 19.4077 20.3807C19.5631 20.3807 19.7121 20.319 19.822 20.2091C19.9319 20.0992 19.9936 19.9502 19.9936 19.7948C19.9936 19.6394 19.9319 19.4903 19.822 19.3804L16.3486 15.9071C17.5962 14.4508 18.2487 12.5776 18.1758 10.6614C18.1028 8.74512 17.3098 6.92692 15.955 5.56977ZM15.1264 15.5135C14.225 16.4149 13.0765 17.0287 11.8263 17.2774C10.576 17.5261 9.28005 17.3985 8.10232 16.9106C6.9246 16.4228 5.91798 15.5967 5.20975 14.5368C4.50153 13.4768 4.12352 12.2307 4.12352 10.9559C4.12352 9.68117 4.50153 8.43504 5.20975 7.37511C5.91797 6.31518 6.9246 5.48907 8.10232 5.00124C9.28005 4.51341 10.576 4.38577 11.8263 4.63446C13.0765 4.88316 14.225 5.49702 15.1264 6.39841C16.3327 7.6084 17.0101 9.24732 17.0101 10.9559C17.0101 12.6645 16.3327 14.3035 15.1264 15.5135Z" fill="#B4B4B4"/>
</g>
<defs>
<clipPath id="clip0_97_1511">
<rect width="25" height="25" fill="white"/>
</clipPath>
</defs>
</svg>
