<svg width="24" height="24" viewBox="0 0 24 24" fill="none" xmlns="http://www.w3.org/2000/svg">
<path d="M21.375 8.99063V8.9625C21.3675 8.94476 21.3643 8.92548 21.3656 8.90625H21.3563L20.0156 4.19063C19.9472 3.95698 19.8055 3.75154 19.6113 3.60467C19.4172 3.45779 19.1809 3.37727 18.9375 3.375H5.0625C4.81906 3.37727 4.58281 3.45779 4.38867 3.60467C4.19452 3.75154 4.05277 3.95698 3.98438 4.19063L2.64375 8.89688H2.63438C2.63574 8.9161 2.63253 8.93538 2.625 8.95312V10.4813C2.62469 11.0359 2.76146 11.582 3.02316 12.0711C3.28485 12.5601 3.66335 12.9769 4.125 13.2844V19.5C4.125 19.7984 4.24353 20.0845 4.45451 20.2955C4.66548 20.5065 4.95163 20.625 5.25 20.625H18.75C19.0484 20.625 19.3345 20.5065 19.5455 20.2955C19.7565 20.0845 19.875 19.7984 19.875 19.5V13.3031C20.3366 12.9957 20.7151 12.5789 20.9768 12.0898C21.2385 11.6008 21.3753 11.0547 21.375 10.5V9V8.99063ZM4.70625 4.39688C4.72974 4.32 4.77675 4.25242 4.84065 4.20365C4.90456 4.15488 4.98215 4.12737 5.0625 4.125H18.9375C19.0179 4.12737 19.0954 4.15488 19.1593 4.20365C19.2232 4.25242 19.2703 4.32 19.2938 4.39688L20.5031 8.625H3.49688L4.70625 4.39688ZM9.375 9.375H14.625V10.5C14.625 11.1962 14.3484 11.8639 13.8562 12.3562C13.3639 12.8484 12.6962 13.125 12 13.125C11.3038 13.125 10.6361 12.8484 10.1438 12.3562C9.65156 11.8639 9.375 11.1962 9.375 10.5V9.375ZM3.375 10.5V9.375H8.625V10.5C8.62253 11.1954 8.34517 11.8617 7.85343 12.3534C7.36168 12.8452 6.69543 13.1225 6 13.125C5.56109 13.1262 5.12898 13.0166 4.74375 12.8063C4.70667 12.7759 4.66568 12.7507 4.62188 12.7313C4.2399 12.4977 3.92452 12.1698 3.70613 11.779C3.48774 11.3882 3.3737 10.9477 3.375 10.5ZM19.125 19.5C19.125 19.5995 19.0855 19.6948 19.0152 19.7652C18.9448 19.8355 18.8495 19.875 18.75 19.875H5.25C5.15054 19.875 5.05516 19.8355 4.98484 19.7652C4.91451 19.6948 4.875 19.5995 4.875 19.5V13.6781C5.2353 13.8102 5.61627 13.8768 6 13.875C6.61969 13.8751 7.22744 13.7045 7.75662 13.382C8.2858 13.0596 8.71598 12.5976 9 12.0469C9.28393 12.5978 9.71407 13.0599 10.2433 13.3825C10.7724 13.7051 11.3802 13.8757 12 13.8757C12.6198 13.8757 13.2276 13.7051 13.7567 13.3825C14.2859 13.0599 14.7161 12.5978 15 12.0469C15.284 12.5976 15.7142 13.0596 16.2434 13.382C16.7726 13.7045 17.3803 13.8751 18 13.875C18.3837 13.8768 18.7647 13.8102 19.125 13.6781V19.5ZM19.3781 12.7313C19.3343 12.7507 19.2933 12.7759 19.2562 12.8063C18.871 13.0166 18.4389 13.1262 18 13.125C17.3046 13.1225 16.6383 12.8452 16.1466 12.3534C15.6548 11.8617 15.3775 11.1954 15.375 10.5V9.375H20.625V10.5C20.6263 10.9477 20.5123 11.3882 20.2939 11.779C20.0755 12.1698 19.7601 12.4977 19.3781 12.7313Z" fill="black"/>
</svg>
