<svg width="21" height="20" viewBox="0 0 21 20" fill="none" xmlns="http://www.w3.org/2000/svg">
<path d="M20.4805 18.8009C18.9689 16.1935 16.4983 14.2801 13.5957 13.4688C14.9654 12.7731 16.0608 11.6364 16.7053 10.2419C17.3498 8.84737 17.5057 7.27644 17.1481 5.78243C16.7904 4.28842 15.9399 2.95844 14.7338 2.00699C13.5277 1.05554 12.0362 0.538086 10.5 0.538086C8.96377 0.538086 7.47232 1.05554 6.2662 2.00699C5.06007 2.95844 4.20959 4.28842 3.85192 5.78243C3.49424 7.27644 3.65023 8.84737 4.29471 10.2419C4.9392 11.6364 6.03462 12.7731 7.40429 13.4688C4.50172 14.2801 2.0311 16.1935 0.519521 18.8009C0.479676 18.8672 0.453599 18.9409 0.442846 19.0175C0.432094 19.0941 0.436885 19.1721 0.456936 19.2469C0.476987 19.3216 0.511886 19.3915 0.55955 19.4525C0.607215 19.5134 0.666669 19.5642 0.734365 19.6016C0.801041 19.6402 0.874655 19.6652 0.950998 19.6752C1.02734 19.6852 1.10492 19.6801 1.17929 19.6602C1.25366 19.6402 1.32337 19.6058 1.38443 19.5589C1.44549 19.512 1.4967 19.4535 1.53515 19.3868C2.44367 17.8131 3.75044 16.5063 5.3241 15.5977C6.89776 14.6891 8.68287 14.2108 10.5 14.2108C12.3171 14.2108 14.1022 14.6891 15.6759 15.5977C17.2495 16.5063 18.5563 17.8131 19.4648 19.3868C19.5163 19.4759 19.5903 19.5499 19.6795 19.6014C19.7686 19.6528 19.8697 19.6798 19.9726 19.6798C20.0752 19.6782 20.1759 19.6513 20.2656 19.6016C20.3333 19.5642 20.3928 19.5134 20.4404 19.4525C20.4881 19.3915 20.523 19.3216 20.543 19.2469C20.5631 19.1721 20.5679 19.0941 20.5571 19.0175C20.5464 18.9409 20.5203 18.8672 20.4805 18.8009ZM4.83593 7.37508C4.83593 6.25483 5.16812 5.15975 5.79049 4.22829C6.41287 3.29684 7.29748 2.57087 8.33245 2.14217C9.36742 1.71347 10.5063 1.6013 11.605 1.81985C12.7037 2.0384 13.713 2.57785 14.5051 3.36998C15.2972 4.16212 15.8367 5.17136 16.0552 6.27008C16.2738 7.3688 16.1616 8.50765 15.7329 9.54262C15.3042 10.5776 14.5782 11.4622 13.6468 12.0846C12.7153 12.707 11.6202 13.0391 10.5 13.0391C8.99779 13.0391 7.55711 12.4424 6.49489 11.3802C5.43268 10.318 4.83593 8.87728 4.83593 7.37508Z" fill="black"/>
</svg>
